<svg width="33" height="32" viewBox="0 0 33 32" fill="none" xmlns="http://www.w3.org/2000/svg">
<rect x="0.5" width="32" height="32" rx="16" fill="white"/>
<path fill-rule="evenodd" clip-rule="evenodd" d="M15.3262 8.5C11.8323 8.5 9 11.3323 9 14.8262C9 18.32 11.8323 21.1524 15.3262 21.1524C16.898 21.1524 18.3358 20.5792 19.4422 19.6304L23.1693 23.3575C23.3593 23.5475 23.6674 23.5475 23.8575 23.3575C24.0475 23.1674 24.0475 22.8593 23.8575 22.6693L20.1304 18.9422C21.0792 17.8358 21.6524 16.398 21.6524 14.8262C21.6524 11.3323 18.82 8.5 15.3262 8.5ZM9.97326 14.8262C9.97326 11.8698 12.3698 9.47326 15.3262 9.47326C18.2825 9.47326 20.6791 11.8698 20.6791 14.8262C20.6791 17.7825 18.2825 20.1791 15.3262 20.1791C12.3698 20.1791 9.97326 17.7825 9.97326 14.8262Z" fill="#121212"/>
</svg>
